<svg width="400" height="180" viewBox="0 0 400 180" fill="none" xmlns="http://www.w3.org/2000/svg">
<g clip-path="url(#clip0_206_32)">
<mask id="mask0_206_32" style="mask-type:luminance" maskUnits="userSpaceOnUse" x="0" y="0" width="400" height="180">
<path d="M400 0H0V180H400V0Z" fill="white"/>
</mask>
<g mask="url(#mask0_206_32)">
<path d="M64.558 110.296L107.405 104.893L142.813 86.312L175.761 120.411L207.799 112.393L249.167 81.58L282.194 121.044L336.111 100.494" stroke="#FEEEEE" stroke-width="85" stroke-linecap="round" stroke-linejoin="round"/>
<path d="M64.558 110.296L107.405 104.893L142.813 86.312L175.761 120.411L207.799 112.393L249.167 81.58L282.194 121.044L336.111 100.494" stroke="#FFF8DE" stroke-width="71" stroke-linecap="round" stroke-linejoin="round"/>
<path d="M65.0483 110.435L107.744 104.996L143.027 86.2905L175.859 120.618L207.784 112.546L249.006 81.5268L281.916 121.255L335.643 100.568" stroke="#FFF500" stroke-width="55.8927" stroke-linecap="round" stroke-linejoin="round"/>
<path d="M70.2046 111.304C72.9133 110.678 74.4904 111.33 74.9358 113.26C75.2013 114.409 75.0192 115.288 74.3897 115.895C73.7601 116.502 72.7925 116.957 71.4869 117.258L68.5345 117.94L67.1646 112.006L70.2046 111.304ZM65.1575 122.383L72.2899 120.736C73.5566 120.444 74.6771 120.052 75.6515 119.56C76.6258 119.068 77.4154 118.465 78.0202 117.751C78.625 117.037 79.0244 116.211 79.2185 115.273C79.4125 114.335 79.3746 113.282 79.1046 112.112C78.6187 110.008 77.5475 108.613 75.891 107.928C74.2345 107.243 72.081 107.207 69.4308 107.819L66.3615 108.527L65.302 103.938L75.0067 101.697L74.2036 98.2189L60.3188 101.424L65.1575 122.383Z" stroke="#FFDFD1" stroke-width="1.5"/>
<path d="M70.2046 111.304C72.9133 110.678 74.4904 111.33 74.9358 113.26C75.2013 114.409 75.0192 115.288 74.3897 115.895C73.7601 116.502 72.7925 116.957 71.4869 117.258L68.5345 117.94L67.1646 112.006L70.2046 111.304ZM65.1575 122.383L72.2899 120.736C73.5566 120.444 74.6771 120.052 75.6515 119.56C76.6258 119.068 77.4154 118.465 78.0202 117.751C78.625 117.037 79.0244 116.211 79.2185 115.273C79.4125 114.335 79.3746 113.282 79.1046 112.112C78.6187 110.008 77.5475 108.613 75.891 107.928C74.2345 107.243 72.081 107.207 69.4308 107.819L66.3615 108.527L65.302 103.938L75.0067 101.697L74.2036 98.2189L60.3188 101.424L65.1575 122.383Z" fill="black"/>
<path d="M106.126 107.928C105.67 107.702 105.349 107.283 105.161 106.671C104.957 106.001 105.067 105.387 105.492 104.828C105.917 104.27 106.723 103.809 107.909 103.447L109.601 102.929L109.873 103.818C109.92 103.971 109.955 104.238 109.977 104.618C109.999 104.998 109.951 105.405 109.832 105.839C109.714 106.272 109.496 106.689 109.179 107.089C108.862 107.489 108.379 107.789 107.729 107.988C107.117 108.175 106.582 108.155 106.126 107.928ZM115.768 108.322C115.708 108.194 115.637 108.032 115.557 107.837C115.476 107.642 115.396 107.432 115.316 107.205C115.237 106.978 115.158 106.757 115.082 106.54C115.005 106.323 114.94 106.128 114.887 105.956L112.563 98.3532C112.013 96.5553 111.063 95.4133 109.712 94.9271C108.361 94.4409 106.71 94.496 104.759 95.0925C103.554 95.4609 102.485 95.9339 101.554 96.5116C100.622 97.0893 99.8804 97.6401 99.3295 98.164L100.294 101.32C100.845 100.796 101.51 100.268 102.289 99.7376C103.068 99.2067 103.973 98.7833 105.006 98.4676C106.039 98.1518 106.841 98.0896 107.412 98.2811C107.983 98.4725 108.409 99.0273 108.689 99.9453L108.891 100.605L107.055 101.167C104.76 101.868 103.122 102.839 102.142 104.08C101.162 105.321 100.915 106.735 101.4 108.323C101.622 109.049 101.94 109.642 102.352 110.102C102.764 110.562 103.241 110.907 103.783 111.139C104.324 111.371 104.903 111.487 105.52 111.486C106.137 111.486 106.761 111.389 107.392 111.196C108.042 110.997 108.588 110.747 109.029 110.445C109.47 110.143 109.832 109.807 110.117 109.438C110.401 109.068 110.616 108.694 110.762 108.315C110.907 107.936 111.007 107.56 111.061 107.189C111.204 107.521 111.371 107.914 111.562 108.368C111.754 108.822 111.922 109.184 112.067 109.453L115.768 108.322Z" stroke="#FFDFD1" stroke-width="1.5"/>
<path d="M106.126 107.928C105.67 107.702 105.349 107.283 105.161 106.671C104.957 106.001 105.067 105.387 105.492 104.828C105.917 104.27 106.723 103.809 107.909 103.447L109.601 102.929L109.873 103.818C109.92 103.971 109.955 104.238 109.977 104.618C109.999 104.998 109.951 105.405 109.832 105.839C109.714 106.272 109.496 106.689 109.179 107.089C108.862 107.489 108.379 107.789 107.729 107.988C107.117 108.175 106.582 108.155 106.126 107.928ZM115.768 108.322C115.708 108.194 115.637 108.032 115.557 107.837C115.476 107.642 115.396 107.432 115.316 107.205C115.237 106.978 115.158 106.757 115.082 106.54C115.005 106.323 114.94 106.128 114.887 105.956L112.563 98.3532C112.013 96.5553 111.063 95.4133 109.712 94.9271C108.361 94.4409 106.71 94.496 104.759 95.0925C103.554 95.4609 102.485 95.9339 101.554 96.5116C100.622 97.0893 99.8804 97.6401 99.3295 98.164L100.294 101.32C100.845 100.796 101.51 100.268 102.289 99.7376C103.068 99.2067 103.973 98.7833 105.006 98.4676C106.039 98.1518 106.841 98.0896 107.412 98.2811C107.983 98.4725 108.409 99.0273 108.689 99.9453L108.891 100.605L107.055 101.167C104.76 101.868 103.122 102.839 102.142 104.08C101.162 105.321 100.915 106.735 101.4 108.323C101.622 109.049 101.94 109.642 102.352 110.102C102.764 110.562 103.241 110.907 103.783 111.139C104.324 111.371 104.903 111.487 105.52 111.486C106.137 111.486 106.761 111.389 107.392 111.196C108.042 110.997 108.588 110.747 109.029 110.445C109.47 110.143 109.832 109.807 110.117 109.438C110.401 109.068 110.616 108.694 110.762 108.315C110.907 107.936 111.007 107.56 111.061 107.189C111.204 107.521 111.371 107.914 111.562 108.368C111.754 108.822 111.922 109.184 112.067 109.453L115.768 108.322Z" fill="black"/>
<path d="M137.244 92.4852C136.81 92.7541 136.336 92.8051 135.823 92.6383C135.727 92.6074 135.643 92.5748 135.57 92.5406C135.497 92.5063 135.416 92.4643 135.328 92.4143L134.178 95.9523C134.394 96.0645 134.603 96.1641 134.806 96.2511C135.009 96.3381 135.216 96.4156 135.425 96.4836C136.509 96.8358 137.476 96.8358 138.327 96.4824C139.178 96.129 139.951 95.4989 140.645 94.5921C141.339 93.6852 141.989 92.5273 142.593 91.1192C143.198 89.7112 143.797 88.1276 144.389 86.3687L148.127 87.5831L144.335 99.2526L148.273 100.532L153.084 85.7239L141.9 82.0899C141.207 84.2203 140.597 86.0196 140.067 87.4878C139.537 88.956 139.02 90.1126 138.514 90.9576C138.102 91.707 137.679 92.2162 137.244 92.4852Z" stroke="#FFDFD1" stroke-width="1.5"/>
<path d="M137.244 92.4852C136.81 92.7541 136.336 92.8051 135.823 92.6383C135.727 92.6074 135.643 92.5748 135.57 92.5406C135.497 92.5063 135.416 92.4643 135.328 92.4143L134.178 95.9523C134.394 96.0645 134.603 96.1641 134.806 96.2511C135.009 96.3381 135.216 96.4156 135.425 96.4836C136.509 96.8358 137.476 96.8358 138.327 96.4824C139.178 96.129 139.951 95.4989 140.645 94.5921C141.339 93.6852 141.989 92.5273 142.593 91.1192C143.198 89.7112 143.797 88.1276 144.389 86.3687L148.127 87.5831L144.335 99.2526L148.273 100.532L153.084 85.7239L141.9 82.0899C141.207 84.2203 140.597 86.0196 140.067 87.4878C139.537 88.956 139.02 90.1126 138.514 90.9576C138.102 91.707 137.679 92.2162 137.244 92.4852Z" fill="black"/>
<path d="M173.867 121.316C173.51 120.954 173.342 120.453 173.364 119.813C173.389 119.113 173.693 118.569 174.277 118.179C174.861 117.789 175.773 117.616 177.012 117.659L178.781 117.721L178.748 118.65C178.743 118.81 178.689 119.073 178.586 119.44C178.483 119.807 178.305 120.176 178.052 120.547C177.799 120.918 177.457 121.242 177.027 121.517C176.597 121.792 176.043 121.918 175.363 121.894C174.723 121.872 174.225 121.679 173.867 121.316ZM182.855 124.827C182.84 124.687 182.826 124.511 182.814 124.3C182.801 124.09 182.794 123.865 182.792 123.624C182.791 123.384 182.789 123.149 182.787 122.919C182.785 122.688 182.787 122.483 182.793 122.304L183.071 114.358C183.136 112.48 182.61 111.09 181.49 110.191C180.371 109.291 178.792 108.806 176.753 108.734C175.494 108.691 174.33 108.79 173.261 109.033C172.192 109.276 171.311 109.555 170.62 109.871L170.505 113.169C171.196 112.853 171.996 112.571 172.906 112.322C173.815 112.074 174.809 111.969 175.888 112.006C176.968 112.044 177.746 112.246 178.224 112.613C178.701 112.98 178.923 113.643 178.89 114.603L178.866 115.292L176.947 115.225C174.548 115.141 172.684 115.527 171.353 116.381C170.022 117.235 169.328 118.491 169.27 120.15C169.244 120.91 169.351 121.574 169.591 122.143C169.831 122.711 170.17 123.194 170.606 123.589C171.042 123.984 171.552 124.282 172.136 124.483C172.719 124.683 173.341 124.795 174 124.818C174.68 124.842 175.277 124.783 175.792 124.641C176.308 124.499 176.76 124.299 177.149 124.043C177.538 123.786 177.863 123.502 178.124 123.191C178.385 122.88 178.602 122.557 178.774 122.223C178.801 122.584 178.831 123.011 178.864 123.502C178.897 123.994 178.938 124.39 178.988 124.692L182.855 124.827Z" stroke="#FFDFD1" stroke-width="1.5"/>
<path d="M173.867 121.316C173.51 120.954 173.342 120.453 173.364 119.813C173.389 119.113 173.693 118.569 174.277 118.179C174.861 117.789 175.773 117.616 177.012 117.659L178.781 117.721L178.748 118.65C178.743 118.81 178.689 119.073 178.586 119.44C178.483 119.807 178.305 120.176 178.052 120.547C177.799 120.918 177.457 121.242 177.027 121.517C176.597 121.792 176.043 121.918 175.363 121.894C174.723 121.872 174.225 121.679 173.867 121.316ZM182.855 124.827C182.84 124.687 182.826 124.511 182.814 124.3C182.801 124.09 182.794 123.865 182.792 123.624C182.791 123.384 182.789 123.149 182.787 122.919C182.785 122.688 182.787 122.483 182.793 122.304L183.071 114.358C183.136 112.48 182.61 111.09 181.49 110.191C180.371 109.291 178.792 108.806 176.753 108.734C175.494 108.691 174.33 108.79 173.261 109.033C172.192 109.276 171.311 109.555 170.62 109.871L170.505 113.169C171.196 112.853 171.996 112.571 172.906 112.322C173.815 112.074 174.809 111.969 175.888 112.006C176.968 112.044 177.746 112.246 178.224 112.613C178.701 112.98 178.923 113.643 178.89 114.603L178.866 115.292L176.947 115.225C174.548 115.141 172.684 115.527 171.353 116.381C170.022 117.235 169.328 118.491 169.27 120.15C169.244 120.91 169.351 121.574 169.591 122.143C169.831 122.711 170.17 123.194 170.606 123.589C171.042 123.984 171.552 124.282 172.136 124.483C172.719 124.683 173.341 124.795 174 124.818C174.68 124.842 175.277 124.783 175.792 124.641C176.308 124.499 176.76 124.299 177.149 124.043C177.538 123.786 177.863 123.502 178.124 123.191C178.385 122.88 178.602 122.557 178.774 122.223C178.801 122.584 178.831 123.011 178.864 123.502C178.897 123.994 178.938 124.39 178.988 124.692L182.855 124.827Z" fill="black"/>
<path d="M222.667 109.262C221.693 109.544 220.502 109.341 219.096 108.655C217.743 107.996 216.878 107.196 216.5 106.254C216.122 105.313 216.16 104.375 216.616 103.44C217.081 102.488 217.801 101.871 218.775 101.59C219.75 101.308 220.922 101.502 222.292 102.17C223.699 102.856 224.587 103.668 224.956 104.604C225.325 105.541 225.278 106.486 224.813 107.438C224.357 108.373 223.642 108.981 222.667 109.262ZM220.923 97.3469C219.916 97.2674 218.984 97.3638 218.128 97.6361C217.272 97.9084 216.516 98.3295 215.86 98.8995C215.204 99.4695 214.687 100.141 214.31 100.914C213.056 103.485 213.203 105.692 214.751 107.538C213.752 106.895 212.97 106.252 212.404 105.609C211.839 104.966 211.476 104.283 211.317 103.56C211.159 102.882 211.183 102.181 211.391 101.459C211.598 100.737 211.872 99.9362 212.212 99.0563C212.483 98.3649 212.709 97.7745 212.892 97.2852C213.075 96.7959 213.221 96.3719 213.329 96.013C213.437 95.6541 213.506 95.3426 213.535 95.0785C213.563 94.8143 213.572 94.5571 213.561 94.3067L210.298 92.7155C210.309 92.9658 210.299 93.2275 210.265 93.5007C210.232 93.7738 210.166 94.1032 210.067 94.4888C209.968 94.8744 209.823 95.3208 209.631 95.8281C209.439 96.3354 209.181 96.9439 208.857 97.6537C208.42 98.6867 208.079 99.6941 207.834 100.676C207.589 101.658 207.543 102.653 207.696 103.663C207.838 104.466 208.091 105.224 208.456 105.936C208.821 106.648 209.335 107.338 209.999 108.007C210.663 108.676 211.49 109.33 212.481 109.968C213.471 110.607 214.658 111.264 216.042 111.939C217.426 112.614 218.723 113.024 219.932 113.169C221.141 113.313 222.24 113.238 223.23 112.942C224.22 112.646 225.101 112.152 225.872 111.46C226.644 110.768 227.279 109.91 227.779 108.885C228.27 107.878 228.575 106.865 228.695 105.844C228.814 104.823 228.724 103.844 228.424 102.908C228.124 101.972 227.613 101.105 226.889 100.307C226.166 99.509 225.22 98.8251 224.051 98.2552C222.973 97.7292 221.93 97.4264 220.923 97.3469Z" stroke="#FFDFD1" stroke-width="1.5"/>
<path d="M222.667 109.262C221.693 109.544 220.502 109.341 219.096 108.655C217.743 107.996 216.878 107.196 216.5 106.254C216.122 105.313 216.16 104.375 216.616 103.44C217.081 102.488 217.801 101.871 218.775 101.59C219.75 101.308 220.922 101.502 222.292 102.17C223.699 102.856 224.587 103.668 224.956 104.604C225.325 105.541 225.278 106.486 224.813 107.438C224.357 108.373 223.642 108.981 222.667 109.262ZM220.923 97.3469C219.916 97.2674 218.984 97.3638 218.128 97.6361C217.272 97.9084 216.516 98.3295 215.86 98.8995C215.204 99.4695 214.687 100.141 214.31 100.914C213.056 103.485 213.203 105.692 214.751 107.538C213.752 106.895 212.97 106.252 212.404 105.609C211.839 104.966 211.476 104.283 211.317 103.56C211.159 102.882 211.183 102.181 211.391 101.459C211.598 100.737 211.872 99.9362 212.212 99.0563C212.483 98.3649 212.709 97.7745 212.892 97.2852C213.075 96.7959 213.221 96.3719 213.329 96.013C213.437 95.6541 213.506 95.3426 213.535 95.0785C213.563 94.8143 213.572 94.5571 213.561 94.3067L210.298 92.7155C210.309 92.9658 210.299 93.2275 210.265 93.5007C210.232 93.7738 210.166 94.1032 210.067 94.4888C209.968 94.8744 209.823 95.3208 209.631 95.8281C209.439 96.3354 209.181 96.9439 208.857 97.6537C208.42 98.6867 208.079 99.6941 207.834 100.676C207.589 101.658 207.543 102.653 207.696 103.663C207.838 104.466 208.091 105.224 208.456 105.936C208.821 106.648 209.335 107.338 209.999 108.007C210.663 108.676 211.49 109.33 212.481 109.968C213.471 110.607 214.658 111.264 216.042 111.939C217.426 112.614 218.723 113.024 219.932 113.169C221.141 113.313 222.24 113.238 223.23 112.942C224.22 112.646 225.101 112.152 225.872 111.46C226.644 110.768 227.279 109.91 227.779 108.885C228.27 107.878 228.575 106.865 228.695 105.844C228.814 104.823 228.724 103.844 228.424 102.908C228.124 101.972 227.613 101.105 226.889 100.307C226.166 99.509 225.22 98.8251 224.051 98.2552C222.973 97.7292 221.93 97.4264 220.923 97.3469Z" fill="black"/>
<path d="M246.742 90.3879C245.727 90.1406 244.752 89.349 243.817 88.0137C242.893 86.6949 242.489 85.5157 242.604 84.4769C242.719 83.4381 243.194 82.6266 244.03 82.0415C244.914 81.422 245.86 81.2384 246.867 81.4914C247.875 81.7444 248.84 82.5307 249.764 83.8496C250.699 85.1848 251.113 86.3693 251.006 87.4024C250.899 88.4355 250.403 89.2613 249.519 89.8808C248.683 90.4658 247.758 90.6351 246.742 90.3879ZM253.678 90.3558C254.272 89.5127 254.662 88.6049 254.848 87.6325C255.034 86.66 255.005 85.6426 254.761 84.58C254.518 83.5175 254.023 82.4538 253.278 81.3889C252.532 80.324 251.702 79.4955 250.787 78.9033C249.871 78.3111 248.928 77.9402 247.956 77.7904C246.985 77.6406 246.001 77.7005 245.006 77.9702C244.011 78.2399 243.054 78.6959 242.137 79.3383C241.219 79.9807 240.472 80.7177 239.894 81.5493C239.317 82.3809 238.932 83.2789 238.741 84.2431C238.549 85.2074 238.579 86.2179 238.831 87.2747C239.083 88.3314 239.581 89.3923 240.327 90.4572C241.073 91.5221 241.899 92.3535 242.806 92.9514C243.713 93.5493 244.655 93.9272 245.632 94.0852C246.61 94.2432 247.588 94.1931 248.567 93.9349C249.546 93.6767 250.494 93.2264 251.412 92.584C252.329 91.9416 253.085 91.1989 253.678 90.3558Z" stroke="#FFDFD1" stroke-width="1.5"/>
<path d="M246.742 90.3879C245.727 90.1406 244.752 89.349 243.817 88.0137C242.893 86.6949 242.489 85.5157 242.604 84.4769C242.719 83.4381 243.194 82.6266 244.03 82.0415C244.914 81.422 245.86 81.2384 246.867 81.4914C247.875 81.7444 248.84 82.5307 249.764 83.8496C250.699 85.1848 251.113 86.3693 251.006 87.4024C250.899 88.4355 250.403 89.2613 249.519 89.8808C248.683 90.4658 247.758 90.6351 246.742 90.3879ZM253.678 90.3558C254.272 89.5127 254.662 88.6049 254.848 87.6325C255.034 86.66 255.005 85.6426 254.761 84.58C254.518 83.5175 254.023 82.4538 253.278 81.3889C252.532 80.324 251.702 79.4955 250.787 78.9033C249.871 78.3111 248.928 77.9402 247.956 77.7904C246.985 77.6406 246.001 77.7005 245.006 77.9702C244.011 78.2399 243.054 78.6959 242.137 79.3383C241.219 79.9807 240.472 80.7177 239.894 81.5493C239.317 82.3809 238.932 83.2789 238.741 84.2431C238.549 85.2074 238.579 86.2179 238.831 87.2747C239.083 88.3314 239.581 89.3923 240.327 90.4572C241.073 91.5221 241.899 92.3535 242.806 92.9514C243.713 93.5493 244.655 93.9272 245.632 94.0852C246.61 94.2432 247.588 94.1931 248.567 93.9349C249.546 93.6767 250.494 93.2264 251.412 92.584C252.329 91.9416 253.085 91.1989 253.678 90.3558Z" fill="black"/>
<path d="M286.049 120.717C285.197 120.167 284.569 119.135 284.164 117.624C283.774 116.17 283.811 114.992 284.272 114.089C284.735 113.187 285.468 112.6 286.472 112.331C287.496 112.056 288.434 112.195 289.286 112.746C290.137 113.297 290.76 114.308 291.155 115.781C291.56 117.293 291.53 118.496 291.066 119.388C290.601 120.282 289.857 120.866 288.833 121.14C287.828 121.409 286.9 121.269 286.049 120.717ZM293.897 111.584C293.296 110.771 292.612 110.132 291.845 109.664C291.078 109.197 290.264 108.903 289.404 108.781C288.543 108.66 287.697 108.71 286.866 108.933C284.104 109.673 282.534 111.233 282.157 113.611C281.987 112.435 281.959 111.423 282.073 110.575C282.187 109.726 282.465 109.005 282.906 108.41C283.314 107.845 283.858 107.405 284.539 107.087C285.221 106.77 286.005 106.451 286.892 106.131C287.591 105.881 288.186 105.665 288.675 105.482C289.164 105.299 289.58 105.131 289.922 104.977C290.264 104.824 290.544 104.671 290.762 104.519C290.98 104.368 291.18 104.206 291.361 104.033L290.422 100.526C290.24 100.699 290.036 100.863 289.808 101.017C289.58 101.171 289.288 101.337 288.932 101.516C288.576 101.694 288.144 101.877 287.635 102.065C287.126 102.253 286.498 102.458 285.75 102.679C284.683 103.027 283.699 103.43 282.797 103.889C281.895 104.348 281.114 104.967 280.453 105.744C279.939 106.379 279.534 107.067 279.236 107.81C278.938 108.552 278.754 109.393 278.685 110.333C278.616 111.273 278.665 112.326 278.833 113.493C279 114.659 279.283 115.986 279.682 117.473C280.081 118.961 280.622 120.208 281.306 121.216C281.99 122.223 282.768 123.003 283.641 123.556C284.514 124.109 285.465 124.45 286.493 124.578C287.521 124.706 288.586 124.623 289.687 124.328C290.769 124.038 291.734 123.603 292.583 123.024C293.432 122.444 294.111 121.734 294.621 120.893C295.131 120.053 295.45 119.098 295.577 118.028C295.705 116.959 295.6 115.796 295.264 114.541C294.953 113.382 294.498 112.396 293.897 111.584Z" stroke="#FFDFD1" stroke-width="1.5"/>
<path d="M286.049 120.717C285.197 120.167 284.569 119.135 284.164 117.624C283.774 116.17 283.811 114.992 284.272 114.089C284.735 113.187 285.468 112.6 286.472 112.331C287.496 112.056 288.434 112.195 289.286 112.746C290.137 113.297 290.76 114.308 291.155 115.781C291.56 117.293 291.53 118.496 291.066 119.388C290.601 120.282 289.857 120.866 288.833 121.14C287.828 121.409 286.9 121.269 286.049 120.717ZM293.897 111.584C293.296 110.771 292.612 110.132 291.845 109.664C291.078 109.197 290.264 108.903 289.404 108.781C288.543 108.66 287.697 108.71 286.866 108.933C284.104 109.673 282.534 111.233 282.157 113.611C281.987 112.435 281.959 111.423 282.073 110.575C282.187 109.726 282.465 109.005 282.906 108.41C283.314 107.845 283.858 107.405 284.539 107.087C285.221 106.77 286.005 106.451 286.892 106.131C287.591 105.881 288.186 105.665 288.675 105.482C289.164 105.299 289.58 105.131 289.922 104.977C290.264 104.824 290.544 104.671 290.762 104.519C290.98 104.368 291.18 104.206 291.361 104.033L290.422 100.526C290.24 100.699 290.036 100.863 289.808 101.017C289.58 101.171 289.288 101.337 288.932 101.516C288.576 101.694 288.144 101.877 287.635 102.065C287.126 102.253 286.498 102.458 285.75 102.679C284.683 103.027 283.699 103.43 282.797 103.889C281.895 104.348 281.114 104.967 280.453 105.744C279.939 106.379 279.534 107.067 279.236 107.81C278.938 108.552 278.754 109.393 278.685 110.333C278.616 111.273 278.665 112.326 278.833 113.493C279 114.659 279.283 115.986 279.682 117.473C280.081 118.961 280.622 120.208 281.306 121.216C281.99 122.223 282.768 123.003 283.641 123.556C284.514 124.109 285.465 124.45 286.493 124.578C287.521 124.706 288.586 124.623 289.687 124.328C290.769 124.038 291.734 123.603 292.583 123.024C293.432 122.444 294.111 121.734 294.621 120.893C295.131 120.053 295.45 119.098 295.577 118.028C295.705 116.959 295.6 115.796 295.264 114.541C294.953 113.382 294.498 112.396 293.897 111.584Z" fill="black"/>
<path d="M333.03 105.904C332.537 106.033 332.019 105.927 331.476 105.588C330.883 105.217 330.563 104.681 330.518 103.981C330.472 103.28 330.778 102.404 331.435 101.352L332.373 99.8512L333.161 100.344C333.297 100.429 333.498 100.607 333.764 100.88C334.03 101.152 334.261 101.491 334.456 101.896C334.651 102.301 334.76 102.758 334.783 103.268C334.807 103.778 334.638 104.321 334.278 104.898C333.939 105.44 333.523 105.776 333.03 105.904ZM340.564 99.8758C340.435 99.8186 340.276 99.7428 340.087 99.6485C339.899 99.5542 339.7 99.4477 339.491 99.329C339.282 99.2103 339.078 99.0942 338.877 98.9808C338.677 98.8674 338.5 98.763 338.348 98.6676L331.606 94.4548C330.011 93.4585 328.545 93.2202 327.206 93.7397C325.867 94.2592 324.658 95.384 323.577 97.114C322.909 98.1826 322.413 99.2405 322.089 100.288C321.764 101.335 321.566 102.237 321.494 102.994L324.293 104.743C324.365 103.986 324.521 103.152 324.76 102.24C324.999 101.328 325.405 100.415 325.978 99.4988C326.55 98.5829 327.114 98.0099 327.671 97.7798C328.227 97.5498 328.913 97.6891 329.727 98.1978L330.312 98.5635L329.294 100.192C328.023 102.227 327.424 104.034 327.498 105.614C327.573 107.193 328.314 108.423 329.721 109.302C330.366 109.705 330.995 109.945 331.607 110.021C332.22 110.097 332.807 110.045 333.367 109.865C333.928 109.685 334.441 109.392 334.906 108.987C335.372 108.582 335.779 108.1 336.129 107.54C336.489 106.963 336.737 106.416 336.871 105.899C337.006 105.382 337.059 104.89 337.032 104.425C337.004 103.96 336.921 103.536 336.782 103.155C336.643 102.773 336.472 102.424 336.268 102.109C336.595 102.265 336.979 102.452 337.421 102.67C337.863 102.887 338.227 103.05 338.514 103.158L340.564 99.8758Z" stroke="#FFDFD1" stroke-width="1.5"/>
<path d="M333.03 105.904C332.537 106.033 332.019 105.927 331.476 105.588C330.883 105.217 330.563 104.681 330.518 103.981C330.472 103.28 330.778 102.404 331.435 101.352L332.373 99.8512L333.161 100.344C333.297 100.429 333.498 100.607 333.764 100.88C334.03 101.152 334.261 101.491 334.456 101.896C334.651 102.301 334.76 102.758 334.783 103.268C334.807 103.778 334.638 104.321 334.278 104.898C333.939 105.44 333.523 105.776 333.03 105.904ZM340.564 99.8758C340.435 99.8186 340.276 99.7428 340.087 99.6485C339.899 99.5542 339.7 99.4477 339.491 99.329C339.282 99.2103 339.078 99.0942 338.877 98.9808C338.677 98.8674 338.5 98.763 338.348 98.6676L331.606 94.4548C330.011 93.4585 328.545 93.2202 327.206 93.7397C325.867 94.2592 324.658 95.384 323.577 97.114C322.909 98.1826 322.413 99.2405 322.089 100.288C321.764 101.335 321.566 102.237 321.494 102.994L324.293 104.743C324.365 103.986 324.521 103.152 324.76 102.24C324.999 101.328 325.405 100.415 325.978 99.4988C326.55 98.5829 327.114 98.0099 327.671 97.7798C328.227 97.5498 328.913 97.6891 329.727 98.1978L330.312 98.5635L329.294 100.192C328.023 102.227 327.424 104.034 327.498 105.614C327.573 107.193 328.314 108.423 329.721 109.302C330.366 109.705 330.995 109.945 331.607 110.021C332.22 110.097 332.807 110.045 333.367 109.865C333.928 109.685 334.441 109.392 334.906 108.987C335.372 108.582 335.779 108.1 336.129 107.54C336.489 106.963 336.737 106.416 336.871 105.899C337.006 105.382 337.059 104.89 337.032 104.425C337.004 103.96 336.921 103.536 336.782 103.155C336.643 102.773 336.472 102.424 336.268 102.109C336.595 102.265 336.979 102.452 337.421 102.67C337.863 102.887 338.227 103.05 338.514 103.158L340.564 99.8758Z" fill="black"/>
</g>
</g>
<defs>
<clipPath id="clip0_206_32">
<rect width="400" height="180" fill="white"/>
</clipPath>
</defs>
</svg>
